# xmcd
#
# Track frame offsets:
#	150
#	16453
#	31485
#	52189
#	65465
#	81309
#	95570
#	110421
#	130118
#	147357
#	162300
#	177757
#
# Disc length: 2600 seconds
# Revision: 0
# Processed by: cddbd v1.5.2PL0 Copyright (c) Steve Scherf et al.
# Submitted via: dBpowerAMP V12.0
#
DISCID=a60a260c
DTITLE=Finn - Bomb The World (With Kindness)
DYEAR=2012
DGENRE=Blues
TTITLE0=Bomb The World (With Kindness)
TTITLE1=I Don't Want
TTITLE2=No Matter What
TTITLE3=Lies
TTITLE4=Rambling Gambling Man
TTITLE5=I Live Here Too
TTITLE6=Creek Bed (My Own Way)
TTITLE7=Living Is Killing Me
TTITLE8=Eden
TTITLE9=Building Defenses
TTITLE10=Fingers Do The Walkin'
TTITLE11=Ride On
EXTD=
EXTT0=
EXTT1=
EXTT2=
EXTT3=
EXTT4=
EXTT5=
EXTT6=
EXTT7=
EXTT8=
EXTT9=
EXTT10=
EXTT11=
PLAYORDER=
